# xmcd
#
# Track frame offsets:
#	150
#	18415
#	34460
#	50910
#	72735
#	86185
#	102945
#	125255
#	141595
#	157250
#	170135
#	181975
#	197075
#	213605
#	231580
#
# Disc length: 3300 seconds
#
# Revision: 1
# Processed by: cddbd v1.5.1PL2 Copyright (c) Steve Scherf et al.
# Submitted via: audiograbber 1.83.01
#
DISCID=f80ce20f
DTITLE=Music Maestro - MM6239
DYEAR=1900
DGENRE=Karaoke
TTITLE0=McEntire, Reba and Brooks and Dunn - If You See Him
TTITLE1=Akins, Rhett - Drivin' My Life Away
TTITLE2=Clark, Terri - Now That I Found You
TTITLE3=Wariner, Steve - Holes In The Floor Of Heaven
TTITLE4=Dixie Chicks, The - There's Your Trouble
TTITLE5=Herndon, Ty - Man Holdin' On, A
TTITLE6=Wynonna - Always Will
TTITLE7=Strait, George - I Just Want To Dance With You
TTITLE8=McBride, Martina - Happy Girl
TTITLE9=Womack, Lee Ann - Buckaroo
TTITLE10=Hayes, Wade - When The Wrong One Loves You Right
TTITLE11=Sawyer Brown - Small Talk
TTITLE12=Raye, Collin - I Can Still Feel You
TTITLE13=Moorer, Allison - Soft Place To Fall, A
TTITLE14=White, Bryan - Bad Day To Let You Go
EXTD=As Listed In KJ Pro
EXTT0=
EXTT1=
EXTT2=
EXTT3=
EXTT4=
EXTT5=
EXTT6=
EXTT7=
EXTT8=
EXTT9=
EXTT10=
EXTT11=
EXTT12=
EXTT13=
EXTT14=
PLAYORDER=
